<?xml version="1.0" encoding="UTF-8"?>
<svg version="1.1" xmlns="http://www.w3.org/2000/svg" width="48" height="48">
<path d="M0 0 C0.68429077 -0.00095673 1.36858154 -0.00191345 2.0736084 -0.00289917 C3.52286877 -0.0035808 4.97213218 -0.00172773 6.42138672 0.00244141 C8.64687928 0.00778998 10.87217001 0.0024959 13.09765625 -0.00390625 C14.50260461 -0.00324547 15.90755285 -0.0019643 17.3125 0 C18.59962891 0.00112793 19.88675781 0.00225586 21.21289062 0.00341797 C24.15625 0.1328125 24.15625 0.1328125 25.15625 1.1328125 C25.53125 4.5078125 25.53125 4.5078125 25.15625 8.1328125 C23.03125 9.5703125 23.03125 9.5703125 20.15625 11.1328125 C18.54904724 13.188059 17.10593292 15.30158253 15.68359375 17.48828125 C15.17957031 18.03097656 14.67554687 18.57367187 14.15625 19.1328125 C9.15625 19.1328125 4.15625 19.1328125 -0.84375 19.1328125 C-0.84375 19.4628125 -0.84375 19.7928125 -0.84375 20.1328125 C3.11625 20.4628125 7.07625 20.7928125 11.15625 21.1328125 C8.15625 25.1328125 8.15625 25.1328125 6.28125 25.9453125 C3.73266432 26.17018771 1.6282525 25.75081312 -0.84375 25.1328125 C0.47625 26.1228125 1.79625 27.1128125 3.15625 28.1328125 C2.49625 28.7928125 1.83625 29.4528125 1.15625 30.1328125 C1.44728692 33.75211775 3.13605731 35.41501688 5.71875 37.8203125 C6.87839785 38.90996149 8.02811545 40.01056899 9.15625 41.1328125 C9.15625 41.4628125 9.15625 41.7928125 9.15625 42.1328125 C6.51034986 42.15965929 3.86471904 42.17957607 1.21875 42.1953125 C0.46400391 42.20369141 -0.29074219 42.21207031 -1.06835938 42.22070312 C-2.99369313 42.22933691 -4.91910581 42.18505583 -6.84375 42.1328125 C-8.73998202 40.23658048 -7.97272626 37.46910891 -7.98269653 34.9465332 C-7.9806723 34.07988037 -7.97864807 33.21322754 -7.9765625 32.3203125 C-7.97751923 31.43625732 -7.97847595 30.55220215 -7.97946167 29.64135742 C-7.98014351 27.76839121 -7.97828893 25.89542264 -7.97412109 24.02246094 C-7.96877289 21.14512862 -7.97406593 18.26795242 -7.98046875 15.390625 C-7.97980797 13.57552049 -7.97852681 11.76041607 -7.9765625 9.9453125 C-7.97858673 9.07865967 -7.98061096 8.21200684 -7.98269653 7.3190918 C-7.95274563 -0.25877481 -7.43070321 0.00651163 0 0 Z M-0.84375 6.1328125 C-0.84375 7.1228125 -0.84375 8.1128125 -0.84375 9.1328125 C5.42625 9.1328125 11.69625 9.1328125 18.15625 9.1328125 C18.15625 8.1428125 18.15625 7.1528125 18.15625 6.1328125 C11.88625 6.1328125 5.61625 6.1328125 -0.84375 6.1328125 Z M-0.84375 12.1328125 C-0.84375 13.1228125 -0.84375 14.1128125 -0.84375 15.1328125 C4.43625 15.1328125 9.71625 15.1328125 15.15625 15.1328125 C15.15625 14.1428125 15.15625 13.1528125 15.15625 12.1328125 C9.87625 12.1328125 4.59625 12.1328125 -0.84375 12.1328125 Z " fill="#0C0C0C" transform="translate(7.84375,-0.1328125)"/>
<path d="M0 0 C4.56030824 3.80475422 8.85089392 7.74969621 13 12 C11.54744301 15.82946843 9.57104439 17.12050295 6 19 C7.43957797 22.48850112 9.19996575 24.12245205 12.1875 26.375 C14.35546875 28.18359375 14.35546875 28.18359375 16 30 C16 33.4375 16 33.4375 15 36 C12.3046875 36.80859375 12.3046875 36.80859375 9 37 C6.4453125 34.91015625 6.4453125 34.91015625 4.125 32.0625 C3.34382813 31.12535156 2.56265625 30.18820313 1.7578125 29.22265625 C1.17773438 28.48917969 0.59765625 27.75570312 0 27 C-3.20670674 27.69519514 -3.20670674 27.69519514 -4.4375 30.5625 C-4.953125 31.366875 -5.46875 32.17125 -6 33 C-10 33 -10 33 -12.796875 30.59375 C-13.79160961 29.57248913 -14.77570689 28.5407803 -15.75 27.5 C-16.25660156 26.97535156 -16.76320313 26.45070313 -17.28515625 25.91015625 C-18.53265087 24.61558637 -19.76757307 23.3089224 -21 22 C-18.67601547 17.87809048 -17.02893239 16.41735943 -13 14 C-8.61042032 10.0742898 -4.83587658 6.19910707 -2 1 C-1.34 0.67 -0.68 0.34 0 0 Z " fill="#0DA005" transform="translate(31,10)"/>
</svg>
